<svg id="Layer_1" height="512" viewBox="0 0 256 256" width="512" xmlns="http://www.w3.org/2000/svg"><g><g><path d="m30.045 211.333c-14.913 0-27.045-12.132-27.045-27.044v-112.578c0-14.912 12.132-27.045 27.045-27.045h195.911c14.912 0 27.045 12.132 27.045 27.045v112.578c0 14.912-12.132 27.045-27.045 27.045h-195.911z" fill="#a4c9ff"/></g><g><path d="m225.955 200.981h-195.91c-9.219 0-16.693-7.474-16.693-16.693v-112.577c0-9.219 7.474-16.693 16.693-16.693h195.911c9.219 0 16.693 7.474 16.693 16.693v112.578c-.001 9.219-7.474 16.692-16.694 16.692z" fill="#e0ebfc"/></g><g><path d="m225.955 213.333h-195.911c-16.015 0-29.044-13.029-29.044-29.044v-112.578c0-16.015 13.029-29.044 29.044-29.044h195.911c16.016 0 29.045 13.029 29.045 29.044v112.578c0 16.015-13.029 29.044-29.045 29.044zm-195.911-166.666c-13.809 0-25.044 11.234-25.044 25.044v112.578c0 13.81 11.235 25.044 25.044 25.044h195.911c13.81 0 25.045-11.235 25.045-25.044v-112.578c0-13.81-11.235-25.044-25.045-25.044z" fill="#3762cc"/></g><g><path d="m225.955 202.981h-195.911c-10.307 0-18.692-8.385-18.692-18.692v-112.578c0-10.307 8.385-18.692 18.692-18.692h195.911c10.308 0 18.693 8.385 18.693 18.692v112.578c0 10.307-8.385 18.692-18.693 18.692zm-195.911-145.962c-8.102 0-14.692 6.591-14.692 14.692v112.578c0 8.102 6.591 14.692 14.692 14.692h195.911c8.102 0 14.693-6.591 14.693-14.692v-112.578c0-8.102-6.592-14.692-14.693-14.692z" fill="#3762cc"/></g><g><g><path d="m33.798 180.321v-104.642c0-2.835 2.298-5.133 5.133-5.133h140.614c2.835 0 5.133 2.298 5.133 5.133v104.641c0 2.835-2.298 5.133-5.133 5.133h-140.614c-2.835 0-5.133-2.298-5.133-5.132z" fill="#4671c6"/></g><g><path d="m61.376 179.862c-8.806 0-15.97-7.164-15.97-15.97 0-5.261 2.519-10.061 6.793-13.054v-65.523c0-5.06 4.117-9.177 9.176-9.177 5.06 0 9.177 4.117 9.177 9.177v65.523c4.275 2.993 6.793 7.792 6.793 13.054.001 8.806-7.163 15.97-15.969 15.97z" fill="#a4c9ff"/></g><g><path d="m64.818 155.142v-1.693-68.134c0-1.898-1.544-3.442-3.442-3.442s-3.442 1.544-3.442 3.442v68.134 1.693c-3.488 1.377-5.963 4.779-5.963 8.75 0 5.186 4.219 9.406 9.406 9.406s9.406-4.219 9.406-9.406c-.001-3.972-2.477-7.373-5.965-8.75z" fill="#e0ebfc"/></g><g><path d="m202.164 100.14h16.439c1.748 0 2.808-1.928 1.872-3.404l-8.219-12.966c-.871-1.373-2.874-1.373-3.745 0l-8.219 12.966c-.936 1.476.124 3.404 1.872 3.404z" fill="#a4c9ff"/></g><g><path d="m218.603 117.936h-16.439c-1.748 0-2.808 1.928-1.872 3.404l8.219 12.966c.871 1.373 2.874 1.373 3.745 0l8.219-12.966c.936-1.476-.124-3.404-1.872-3.404z" fill="#a4c9ff"/></g><g><circle cx="210.383" cy="160.612" fill="#a4c9ff" r="11.818"/></g><g><g><path d="m145.687 155.572h-7.729c-6.705 0-12.16-5.455-12.16-12.161 0-1.381 1.119-2.5 2.5-2.5s2.5 1.119 2.5 2.5c0 3.948 3.212 7.161 7.16 7.161h7.729c3.948 0 7.161-3.212 7.161-7.161v-11.592c0-3.948-3.213-7.161-7.161-7.161h-7.729c-6.705 0-12.16-5.455-12.16-12.161v-9.661c0-1.381 1.119-2.5 2.5-2.5h27.05c1.381 0 2.5 1.119 2.5 2.5s-1.119 2.5-2.5 2.5h-24.55v7.161c0 3.948 3.212 7.161 7.16 7.161h7.729c6.706 0 12.161 5.455 12.161 12.161v11.592c0 6.706-5.455 12.161-12.161 12.161z" fill="#6bdddd"/></g></g><g><g><path d="m119.724 154.299h-27.049c-1.381 0-2.5-1.119-2.5-2.5v-21.253c0-6.706 5.455-12.161 12.16-12.161h7.729c3.948 0 7.161-3.212 7.161-7.16s-3.212-7.161-7.161-7.161h-17.389c-1.381 0-2.5-1.119-2.5-2.5s1.119-2.5 2.5-2.5h17.389c6.706 0 12.161 5.455 12.161 12.161 0 6.705-5.455 12.16-12.161 12.16h-7.729c-3.948 0-7.16 3.212-7.16 7.161v18.753h24.549c1.381 0 2.5 1.119 2.5 2.5s-1.119 2.5-2.5 2.5z" fill="#6bdddd"/></g></g><g><g><path d="m168.477 109.495c-3.671 0-6.657-2.987-6.657-6.658s2.986-6.658 6.657-6.658 6.658 2.987 6.658 6.658-2.987 6.658-6.658 6.658zm0-8.316c-.914 0-1.657.744-1.657 1.658s.743 1.658 1.657 1.658 1.658-.744 1.658-1.658-.744-1.658-1.658-1.658z" fill="#6bdddd"/></g></g><g><path d="m64.818 155.142v-1.693-34.866h-6.885v34.866 1.693c-3.488 1.377-5.963 4.779-5.963 8.75 0 5.186 4.219 9.406 9.406 9.406 5.186 0 9.406-4.219 9.406-9.406 0-3.972-2.476-7.373-5.964-8.75z" fill="#f9a7a7"/></g><g><path d="m179.545 187.454h-140.614c-3.933 0-7.133-3.2-7.133-7.133v-104.642c0-3.933 3.2-7.133 7.133-7.133h140.614c3.933 0 7.133 3.2 7.133 7.133v104.642c0 3.933-3.2 7.133-7.133 7.133zm-140.614-114.908c-1.728 0-3.133 1.405-3.133 3.133v104.642c0 1.728 1.406 3.133 3.133 3.133h140.614c1.728 0 3.133-1.405 3.133-3.133v-104.642c0-1.728-1.405-3.133-3.133-3.133z" fill="#3762cc"/></g><g><path d="m61.375 181.862c-9.909 0-17.97-8.061-17.97-17.97 0-5.578 2.462-10.645 6.793-14.058v-64.519c0-6.163 5.014-11.177 11.176-11.177 6.163 0 11.177 5.014 11.177 11.177v64.519c4.331 3.414 6.793 8.48 6.793 14.058.002 9.909-8.06 17.97-17.969 17.97zm0-103.724c-3.957 0-7.176 3.22-7.176 7.177v65.523c0 .652-.318 1.264-.853 1.638-3.775 2.644-5.94 6.804-5.94 11.416 0 7.703 6.267 13.97 13.97 13.97s13.97-6.267 13.97-13.97c0-4.611-2.165-8.772-5.94-11.416-.535-.374-.853-.986-.853-1.638v-65.523c-.001-3.957-3.22-7.177-7.178-7.177z" fill="#3762cc"/></g><g><path d="m218.603 102.14h-16.438c-1.538 0-2.954-.837-3.695-2.185s-.689-2.992.135-4.291l8.218-12.965c.778-1.227 2.11-1.959 3.563-1.959h.001c1.452 0 2.783.733 3.561 1.959l8.22 12.966c.823 1.299.874 2.943.133 4.291s-2.16 2.184-3.698 2.184zm-8.219-17.4c-.12 0-.167.074-.185.101l-8.218 12.965c-.021.033-.069.109-.008.221s.152.112.19.112h16.438c.038 0 .129 0 .19-.113.063-.112.014-.188-.007-.221l-8.22-12.966c-.015-.026-.061-.099-.18-.099z" fill="#3762cc"/></g><g><path d="m210.384 137.336c-1.452 0-2.784-.732-3.563-1.959l-8.219-12.966c-.823-1.298-.875-2.942-.134-4.29s2.157-2.185 3.695-2.185h16.438c1.538 0 2.954.837 3.695 2.185.741 1.347.69 2.991-.133 4.29l-8.22 12.966c-.775 1.227-2.106 1.959-3.559 1.959zm-8.22-17.399c-.038 0-.129 0-.19.112-.062.112-.014.188.007.22l8.22 12.966c.018.027.063.101.184.101.119 0 .165-.073.183-.101l8.22-12.966c.021-.032.068-.108.007-.221s-.152-.112-.19-.112h-16.441z" fill="#3762cc"/></g><g><path d="m210.384 174.431c-7.619 0-13.818-6.199-13.818-13.818s6.199-13.818 13.818-13.818 13.818 6.199 13.818 13.818-6.199 13.818-13.818 13.818zm0-23.637c-5.414 0-9.818 4.404-9.818 9.818s4.404 9.818 9.818 9.818 9.818-4.404 9.818-9.818-4.404-9.818-9.818-9.818z" fill="#3762cc"/></g></g></g></svg>